HIERARCHY
ROOT Hips
{
 OFFSET 0.000000 0.000000 0.000000
 CHANNELS 6 Xposition Yposition Zposition Yrotation Xrotation Zrotation
 JOINT Chest
 {
  OFFSET 0.000000 9.585900 0.002600
  CHANNELS 3 Yrotation Xrotation Zrotation
  JOINT Chest2
  {
   OFFSET 0.000000 9.601200 -0.005300
   CHANNELS 3 Yrotation Xrotation Zrotation
   JOINT Chest3
   {
    OFFSET 0.000000 9.561800 0.000000
    CHANNELS 3 Yrotation Xrotation Zrotation
    JOINT Chest4
    {
     OFFSET 0.000000 9.552100 0.000000
     CHANNELS 3 Yrotation Xrotation Zrotation
     JOINT Neck
     {
      OFFSET 0.000000 14.453000 0.000000
      CHANNELS 3 Yrotation Xrotation Zrotation
      JOINT Head
      {
       OFFSET 0.000000 8.936500 -0.011300
       CHANNELS 3 Yrotation Xrotation Zrotation
       End Site
       {
        OFFSET 0.000000 17.073600 -0.006000
       }
      }
     }
     JOINT RightCollar
     {
      OFFSET -2.921100 9.558500 0.000000
      CHANNELS 3 Yrotation Xrotation Zrotation
      JOINT RightShoulder
      {
       OFFSET -13.519700 0.000000 0.000000
       CHANNELS 3 Yrotation Xrotation Zrotation
       JOINT RightElbow
       {
        OFFSET 0.000000 -29.696600 0.000000
        CHANNELS 3 Yrotation Xrotation Zrotation
        JOINT RightWrist
        {
         OFFSET 0.000000 -24.004700 0.000000
         CHANNELS 3 Yrotation Xrotation Zrotation
         End Site
         {
          OFFSET 0.000000 -17.728500 0.000000
         }
        }
       }
      }
     }
     JOINT LeftCollar
     {
      OFFSET 2.921100 9.558500 0.000000
      CHANNELS 3 Yrotation Xrotation Zrotation
      JOINT LeftShoulder
      {
       OFFSET 13.519700 0.000000 0.000000
       CHANNELS 3 Yrotation Xrotation Zrotation
       JOINT LeftElbow
       {
        OFFSET 0.000000 -29.696600 0.000000
        CHANNELS 3 Yrotation Xrotation Zrotation
        JOINT LeftWrist
        {
         OFFSET 0.000000 -24.004700 0.000000
         CHANNELS 3 Yrotation Xrotation Zrotation
         End Site
         {
          OFFSET 0.000000 -17.728500 0.000000
         }
        }
       }
      }
     }
    }
   }
  }
 }
 JOINT RightHip
 {
  OFFSET -7.771700 -0.012900 -0.001300
  CHANNELS 3 Yrotation Xrotation Zrotation
  JOINT RightKnee
  {
   OFFSET 0.000000 -40.869800 0.001200
   CHANNELS 3 Yrotation Xrotation Zrotation
   JOINT RightAnkle
   {
    OFFSET 0.000000 -39.717900 0.002100
    CHANNELS 3 Yrotation Xrotation Zrotation
    JOINT RightToe
    {
     OFFSET 0.000000 -4.965400 11.033500
     CHANNELS 3 Yrotation Xrotation Zrotation
     End Site
     {
      OFFSET 0.000000 -1.423100 5.872300
     }
    }
   }
  }
 }
 JOINT LeftHip
 {
  OFFSET 7.771700 -0.012900 -0.001300
  CHANNELS 3 Yrotation Xrotation Zrotation
  JOINT LeftKnee
  {
   OFFSET 0.000000 -40.869800 0.001200
   CHANNELS 3 Yrotation Xrotation Zrotation
   JOINT LeftAnkle
   {
    OFFSET 0.000000 -39.717900 0.002100
    CHANNELS 3 Yrotation Xrotation Zrotation
    JOINT LeftToe
    {
     OFFSET 0.000000 -4.965400 11.033500
     CHANNELS 3 Yrotation Xrotation Zrotation
     End Site
     {
      OFFSET 0.000000 -1.423100 5.872300
     }
    }
   }
  }
 }
}
MOTION
Frames: 8
Frame Time: 0.008333
-12.441833 52.905621 13.502967 -178.438185 -17.771864 -2.391840 0.467693 16.597067 0.489842 0.053186 1.706158 0.064488 0.089970 2.849238 0.108432 0.550699 14.691809 0.605688 -0.793263 14.341520 -0.010738 -0.818728 -10.682742 0.166778 0.314568 -2.328636 2.954048 0.575845 -7.334532 -5.735311 -96.446838 -76.167388 126.468438 -5.557724 -2.997805 -10.641476 -5.707266 -3.072318 0.295667 1.849115 -6.164910 9.391359 84.940237 -63.254718 -124.459006 -1.747471 2.820618 9.174019 1.461531 -60.648768 11.560173 169.980605 85.800363 168.789948 -12.526472 -23.898569 12.965529 0.044110 -0.078119 -0.165862 3.855530 -59.422293 -2.626940 121.331547 77.856741 119.754998 -5.974661 -19.456688 -1.506528 -0.039533 0.138543 -0.018857
-12.441430 52.903610 13.498689 -178.439651 -17.761583 -2.378637 0.477216 16.582809 0.475936 0.065549 1.688635 0.057121 0.089359 2.839543 0.107291 0.549322 14.686167 0.604592 -0.811431 14.357644 -0.002967 -0.833157 -10.666132 0.178212 0.289427 -2.374199 2.967925 0.525167 -7.249952 -5.675725 -95.956175 -76.353231 125.788376 -5.531835 -2.932312 -10.627337 -5.729096 -3.147507 0.302263 1.869277 -6.032018 9.418540 84.175356 -63.381850 -123.601860 -1.659301 2.437541 9.043708 1.479172 -60.665240 11.592067 171.277208 85.812777 170.128828 -12.820303 -23.871806 13.020878 0.023947 -0.053591 -0.118136 3.868603 -59.429039 -2.644001 121.343916 77.855826 119.762283 -5.977522 -19.467107 -1.507200 -0.034916 0.143762 -0.017541
-12.441297 52.901923 13.495621 -178.441403 -17.749546 -2.366050 0.497885 16.552832 0.459672 0.055803 1.692377 0.061644 0.094304 2.826986 0.103887 0.556076 14.673849 0.601728 -0.829771 14.386198 0.009801 -0.837279 -10.656968 0.183987 0.269401 -2.423983 2.982752 0.463213 -7.164819 -5.598139 -95.420843 -76.592357 125.049246 -5.493857 -2.836765 -10.598542 -5.753307 -3.218887 0.308997 1.928678 -5.886924 9.499244 83.359965 -63.440950 -122.727190 -1.595212 2.113387 8.922528 1.480140 -60.677937 11.596225 171.690660 85.810923 170.534494 -12.829556 -23.871138 13.029148 0.020303 -0.049050 -0.093837 3.874303 -59.436133 -2.656880 121.329844 77.853487 119.738571 -5.976088 -19.477197 -1.505923 -0.037731 0.151528 -0.018970
-12.440076 52.900505 13.494080 -178.446925 -17.734127 -2.361571 0.507712 16.532184 0.456339 0.063515 1.681517 0.059907 0.088232 2.831847 0.105006 0.575773 14.643515 0.595908 -0.853747 14.417645 0.019802 -0.860804 -10.646323 0.192136 0.246981 -2.451537 2.997131 0.395175 -7.104447 -5.503500 -94.823306 -76.882644 124.239103 -5.433280 -2.699675 -10.556543 -5.779372 -3.284006 0.315885 1.957758 -5.776552 9.551065 82.466352 -63.531655 -121.729022 -1.554188 1.876136 8.825192 1.463500 -60.690324 11.592410 171.935027 85.803767 170.727312 -12.554403 -23.887159 13.001460 0.028490 -0.060720 -0.086912 3.877354 -59.449999 -2.660468 121.319046 77.849092 119.723792 -5.972978 -19.484052 -1.505654 -0.038823 0.155852 -0.020578
-12.439201 52.899997 13.491771 -178.450868 -17.729683 -2.358561 0.517302 16.522422 0.455541 0.064322 1.678100 0.059238 0.089078 2.829331 0.105007 0.598424 14.609182 0.590976 -0.879867 14.445312 0.027402 -0.906084 -10.616175 0.210125 0.218210 -2.429640 3.011705 0.354251 -7.088873 -5.428007 -94.187994 -77.181196 123.360776 -5.340061 -2.515821 -10.505768 -5.804746 -3.343122 0.325140 1.985151 -5.675604 9.607311 81.564630 -63.637180 -120.710865 -1.524632 1.740732 8.760372 1.410825 -60.688207 11.625261 172.336787 85.799157 171.076733 -12.333318 -23.900205 12.974727 0.033636 -0.066063 -0.077683 3.879028 -59.451377 -2.664366 121.300479 77.844608 119.703210 -5.968267 -19.493201 -1.504419 -0.043025 0.161639 -0.023798
-12.439337 52.899537 13.491174 -178.460549 -17.720719 -2.349953 0.552081 16.482588 0.452021 0.045073 1.698753 0.062823 0.099200 2.811126 0.102025 0.613897 14.589580 0.590592 -0.906345 14.473407 0.034488 -0.939918 -10.583717 0.228169 0.217906 -2.538711 3.025910 0.287518 -6.941459 -5.349511 -93.513562 -77.489240 122.432561 -5.213680 -2.282041 -10.455463 -5.827715 -3.399067 0.337343 2.010134 -5.580669 9.673512 80.677504 -63.756029 -119.693976 -1.503761 1.712447 8.719345 1.420969 -60.698700 11.622171 172.903176 85.800521 171.636675 -12.245865 -23.904155 12.964589 0.032046 -0.059810 -0.063586 3.896754 -59.455921 -2.679337 121.276069 77.844252 119.677446 -5.961666 -19.501243 -1.503988 -0.045439 0.167709 -0.025081
-12.439408 52.899610 13.490605 -178.467029 -17.716862 -2.344442 0.563986 16.470486 0.448778 0.053937 1.685279 0.062389 0.101723 2.803506 0.101470 0.628306 14.569332 0.587396 -0.931889 14.503722 0.044886 -0.964609 -10.554870 0.242531 0.213570 -2.594887 3.038932 0.238137 -6.843377 -5.263626 -92.760682 -77.788013 121.422952 -5.063156 -2.006831 -10.409541 -5.848839 -3.450800 0.352535 2.035066 -5.490221 9.753953 79.822582 -63.884148 -118.697426 -1.497028 1.782203 8.690291 1.400714 -60.700498 11.651651 173.457791 85.805281 172.180378 -12.234863 -23.908063 12.967536 0.028386 -0.047300 -0.050123 3.908712 -59.456123 -2.688783 121.259407 77.845127 119.660509 -5.958309 -19.508117 -1.507326 -0.046620 0.170453 -0.022716
-12.438995 52.899628 13.491793 -178.485527 -17.707184 -2.338904 0.587832 16.452403 0.448444 0.071320 1.654274 0.058649 0.112289 2.780720 0.097895 0.629196 14.578751 0.591038 -0.951821 14.518307 0.052587 -0.984112 -10.513027 0.258158 0.206441 -2.620889 3.052232 0.199702 -6.771122 -5.172992 -91.881421 -78.057990 120.294621 -4.902113 -1.713593 -10.365934 -5.864979 -3.496873 0.370176 2.058936 -5.402099 9.849822 79.010420 -64.024559 -117.735881 -1.507235 1.923462 8.664851 1.381122 -60.707711 11.677314 173.861522 85.808254 172.555648 -12.149170 -23.916940 12.967395 0.030114 -0.038632 -0.044845 3.926628 -59.465003 -2.690575 121.253554 77.843880 119.655414 -5.960957 -19.510164 -1.511086 -0.045296 0.170701 -0.019559
